<?xml version="1.0" encoding="UTF-8" ?>
<!DOCTYPE svg PUBLIC "-//W3C//DTD SVG 1.1//EN" "http://www.w3.org/Graphics/SVG/1.1/DTD/svg11.dtd">
<svg width="400pt" height="400pt" viewBox="0 0 400 400" version="1.1" xmlns="http://www.w3.org/2000/svg">
<g id="#d30000ff">
<path fill="#d30000" opacity="1.00" d=" M 186.77 46.93 C 195.80 45.72 204.95 45.83 213.97 47.01 C 267.98 50.90 317.99 86.81 339.86 136.21 C 345.10 146.53 347.90 157.84 350.79 168.98 C 352.25 175.59 352.51 182.38 353.32 189.09 C 354.96 202.07 352.92 215.10 351.37 227.97 C 348.79 239.27 345.93 250.64 341.04 261.19 C 325.93 296.45 296.97 325.55 261.76 340.78 C 252.24 345.40 241.89 347.91 231.70 350.60 C 224.76 352.25 217.60 352.49 210.54 353.35 C 202.09 354.39 193.54 353.94 185.12 352.91 C 169.07 351.81 153.38 347.28 138.61 341.06 C 138.57 323.53 138.66 306.00 138.56 288.48 C 152.65 298.08 168.92 304.59 185.85 306.79 C 199.16 307.91 212.84 308.04 225.82 304.47 C 263.93 295.55 295.59 263.86 304.49 225.74 C 308.13 212.44 307.93 198.42 306.67 184.79 C 304.04 167.04 297.09 149.88 286.26 135.54 C 270.81 114.85 247.73 99.73 222.34 94.73 C 215.05 92.98 207.51 92.34 200.04 92.03 C 183.08 92.58 165.97 96.12 150.89 104.11 C 122.39 118.54 100.80 146.35 94.68 177.80 C 92.52 187.34 91.84 197.20 92.00 206.97 C 92.03 241.22 91.94 275.47 92.04 309.72 C 69.09 286.84 53.19 256.84 48.15 224.77 C 46.97 213.20 45.13 201.55 46.59 189.92 C 47.57 182.22 47.68 174.34 49.79 166.83 C 59.29 122.01 90.32 82.41 131.46 62.27 C 148.66 53.63 167.53 48.17 186.77 46.93 Z" />
<path fill="#d30000" opacity="1.00" d=" M 186.44 139.81 C 193.81 138.27 201.45 138.42 208.92 139.04 C 232.41 142.43 253.37 160.50 259.16 183.68 C 264.33 201.53 260.54 221.73 249.33 236.55 C 238.28 251.79 219.81 261.24 201.00 261.39 C 191.75 261.72 182.55 259.42 174.08 255.80 C 155.56 247.28 141.99 229.06 139.04 208.90 C 138.21 198.90 138.15 188.43 142.22 179.06 C 147.21 164.45 158.31 152.26 171.94 145.18 C 176.65 143.08 181.45 141.13 186.44 139.81 M 195.33 185.28 C 188.72 187.33 184.03 194.13 184.52 201.03 C 185.02 208.22 191.00 214.19 197.96 215.40 C 207.12 216.72 216.15 208.14 215.48 198.96 C 214.82 189.56 204.46 181.87 195.33 185.28 Z" />
</g>
</svg>
